# xmcd CD database file
#
# Track frame offsets:
#	150
#	24040
#	37642
#	55825
#	72650
#	89382
#	112735
#	127440
#	144715
#	163847
#	181845
#	207375
#	224907
#
# Disc length: 3286 seconds
#
# Revision: 0
# Processed by: cddbd v1.5PL3 Copyright (c) Steve Scherf et al.
# Submitted via: CDex 1.40Release
#
DISCID=c10cd40d
DTITLE=Olivia - The Lost Lolli
DYEAR=2004
DGENRE=J-POP
TTITLE0=Alone in our Castle
TTITLE1=Fake Flowers
TTITLE2=Blind Unicorn
TTITLE3=Devil's in me
TTITLE4=Celestial Delinquent
TTITLE5=Space Halo
TTITLE6=SpidERSpins [Lost Lolli Mix]
TTITLE7=026unconscious333
TTITLE8=Under Your Waves
TTITLE9=Dreamcamp
TTITLE10=Denial
TTITLE11=Sea me [English version]
TTITLE12=Into the Stars　[Live Arrangement Version]
EXTD=YEAR: 2004
EXTT0=
EXTT1=
EXTT2=
EXTT3=
EXTT4=
EXTT5=
EXTT6=
EXTT7=
EXTT8=
EXTT9=
EXTT10=
EXTT11=
EXTT12=
PLAYORDER=
